<svg width="48" height="48" viewBox="0 0 48 48" fill="none" xmlns="http://www.w3.org/2000/svg">
  <path d="M24 4C12.954 4 4 12.954 4 24C4 35.046 12.954 44 24 44C35.046 44 44 35.046 44 24C44 12.954 35.046 4 24 4ZM24 8C32.822 8 40 15.178 40 24C40 32.822 32.822 40 24 40C15.178 40 8 32.822 8 24C8 15.178 15.178 8 24 8Z" fill="#6371f1"/>
  <path d="M24 12C17.382 12 12 17.382 12 24C12 30.618 17.382 36 24 36C30.618 36 36 30.618 36 24C36 17.382 30.618 12 24 12ZM24 16C28.411 16 32 19.589 32 24C32 28.411 28.411 32 24 32C19.589 32 16 28.411 16 24C16 19.589 19.589 16 24 16Z" fill="#8b5cf6"/>
  <path d="M24 20C21.791 20 20 21.791 20 24C20 26.209 21.791 28 24 28C26.209 28 28 26.209 28 24C28 21.791 26.209 20 24 20Z" fill="#ec4899"/>
</svg>